{"title":"Give 'em Hell, Malone 2009 DVDrip English Klam","uid":6652623,"size":1667609216,"categoryP":"video","categoryS":"movies","magnet":"?xt=urn:btih:700f17d9e98bddd28e5f849fbb2d7df56a8c0b02&amp;dn=Give+%5C%27em+Hell%2C+Malone+2009+DVDrip+English+Klam&amp;tr=udp%3A%2F%2Ftracker.openbittorrent.com%3A80&amp;tr=udp%3A%2F%2Fopen.demonii.com%3A1337&amp;tr=udp%3A%2F%2Ftracker.coppersurfer.tk%3A6969&amp;tr=udp%3A%2F%2Fexodus.desync.com%3A6969","seeders":0,"leechers":0,"uploader":"Klambake","files":-1,"time":1315217882,"description":"With: Thomas Jane, Ving Rhames en Doug Hutchison\n\nMalone (Thomas Jane) is een privÃƒÂ©detective die wordt ingeschakeld om een belangrijk geheim te beschermen. Hiervoor gaat hij het gevecht aan met gangsters en misdadigers, die ervoor zorgen dat Malone door een ware hel gaat, maar tegelijkertijd doet hij zijn best om het zijn tegenstanders zo moeilijk mogelijk te maken.\n\nA tough as nails private investigator (Malone) squares off with gangsters and their thugs to protect a valuable secret. Malone goes through hell to protect the information but he dishes some hell as well... \n\n------------------ Dutch Friends ------------------\nYou can find my Friends at: http://www.Film-Test.nl \n------ They got my dutchs subs ---- and more ------\n\nGeneral:\n\nComplete name                    : Give 'em Hell\\Malone.avi\nFormat                           : AVI\nFormat/Info                      : Audio Video Interleave\nFile size                        : 1.55 GiB\nDuration                         : 1h 32mn\nOverall bit rate                 : 2 403 Kbps\n\nVideo:\n\nFormat                           : MPEG-4 Visual\nFormat profile                   : Simple@L3\nFormat settings, BVOP            : No\nFormat settings, QPel            : No\nFormat settings, GMC             : No warppoints\nFormat settings, Matrix          : Default (H.263)\nCodec ID                         : XVID\nCodec ID/Hint                    : XviD\nDuration                         : 1h 32mn\nBit rate                         : 2 008 Kbps\nWidth                            : 720 pixels\nHeight                           : 304 pixels\nDisplay aspect ratio             : 2.35:1\nFrame rate                       : 25.000 fps\nColor space                      : YUV\nChroma subsampling               : 4:2:0\nBit depth                        : 8 bits\nScan type                        : Progressive\nBits/(Pixel*Frame)               : 0.367\nStream size                      : 1.30 GiB (84%)\nWriting library                  : XviD 1.1.2 (UTC 2006-11-01)\n\nAudio:\n\nFormat                           : AC-3\nFormat/Info                      : Audio Coding 3\nMode extension                   : CM (complete main)\nCodec ID                         : 2000\nDuration                         : 1h 32mn\nBit rate mode                    : Constant\nBit rate                         : 384 Kbps\nChannel(s)                       : 6 channels\nChannel positions                : Front: L C R, Side: L R, LFE\nSampling rate                    : 48.0 KHz\nBit depth                        : 16 bits\nStream size                      : 254 MiB (16%)\nAlignment                        : Aligned on interleaves\nInterleave, duration             : 32 ms (0.80 video frame)\nInterleave, preload duration     : 32 ms\n\n","torrent":{"xt":"urn:btih:700f17d9e98bddd28e5f849fbb2d7df56a8c0b02","amp;dn":"Give+%5C%27em+Hell%2C+Malone+2009+DVDrip+English+Klam","amp;tr":["udp%3A%2F%2Ftracker.openbittorrent.com%3A80","udp%3A%2F%2Fopen.demonii.com%3A1337","udp%3A%2F%2Ftracker.coppersurfer.tk%3A6969","udp%3A%2F%2Fexodus.desync.com%3A6969"],"infoHash":"700f17d9e98bddd28e5f849fbb2d7df56a8c0b02","infoHashBuffer":{"type":"Buffer","data":[112,15,23,217,233,139,221,210,142,95,132,159,187,45,125,245,106,140,11,2]},"announce":[],"urlList":[]}}